<svg xmlns="http://www.w3.org/2000/svg" width="800" height="800" viewBox="0 0 800 800">
  <defs>
    <linearGradient id="bg" x1="0" y1="0" x2="1" y2="1">
      <stop stop-color="#06111f"/>
      <stop offset="1" stop-color="#020812"/>
    </linearGradient>
    <linearGradient id="accent" x1="0" y1="0" x2="1" y2="1">
      <stop stop-color="#0875ff"/>
      <stop offset="1" stop-color="#22c8ff"/>
    </linearGradient>
    <filter id="glow"><feGaussianBlur stdDeviation="30"/></filter>
  </defs>
  <rect width="800" height="800" rx="56" fill="url(#bg)"/>
  <circle cx="640" cy="150" r="150" fill="#0b7dff" opacity=".19" filter="url(#glow)"/>
  <circle cx="170" cy="650" r="120" fill="#22c8ff" opacity=".10" filter="url(#glow)"/>
  <rect x="72" y="80" width="190" height="48" rx="24" fill="#0b7dff" opacity=".18" stroke="#28c7ff" stroke-opacity=".35"/>
  <text x="167" y="111" text-anchor="middle" fill="#7dd3fc" font-size="19" font-family="Arial, sans-serif" font-weight="700">CUT SETUP</text>
  <rect x="105" y="205" width="590" height="330" rx="42" fill="#071a2e" stroke="#1e90ff" stroke-opacity=".28"/>
  <path d="M165 455 C250 245 350 520 450 295 S620 355 640 250" fill="none" stroke="url(#accent)" stroke-width="18" stroke-linecap="round"/>
  <circle cx="165" cy="455" r="18" fill="#22c8ff"/>
  <circle cx="340" cy="420" r="18" fill="#22c8ff"/>
  <circle cx="520" cy="360" r="18" fill="#22c8ff"/>
  <circle cx="640" cy="250" r="18" fill="#22c8ff"/>
  <path d="M145 475l40-40M320 440l40-40M500 380l40-40M620 270l40-40" stroke="#ffffff" stroke-width="5" opacity=".6"/>
  <text x="80" y="620" fill="white" font-size="46" font-family="Arial, sans-serif" font-weight="800">CutPrep</text>
  <text x="82" y="670" fill="#7dd3fc" font-size="23" font-family="Arial, sans-serif" font-weight="700" letter-spacing="4">CUT + PANEL LAYOUT</text>
  <text x="82" y="728" fill="#94a3b8" font-size="20" font-family="Arial, sans-serif">MY JERSEY STUDIO</text>
</svg>